<svg width="148" height="45" viewBox="0 0 148 45" fill="none" xmlns="http://www.w3.org/2000/svg">
<g clip-path="url(#clip0_1296_2103)">
<path fill-rule="evenodd" clip-rule="evenodd" d="M135.505 38.7565C134.108 38.7565 132.979 38.4708 131.729 37.8048C131.672 37.7755 131.628 37.7249 131.607 37.6637C131.587 37.6026 131.59 37.5357 131.618 37.4774L132.817 34.8887C132.832 34.8571 132.853 34.8288 132.879 34.8054C132.905 34.782 132.935 34.7641 132.968 34.7526C133.037 34.7323 133.111 34.7392 133.174 34.7718C133.845 35.134 134.502 35.3162 135.125 35.3162C135.894 35.3162 136.46 35.0676 137.033 33.8144L131.977 21.8871H128.676V33.8155C128.676 33.8839 128.648 33.9493 128.599 33.9974C128.551 34.0455 128.485 34.0723 128.417 34.072H124.882C124.848 34.0721 124.815 34.0656 124.784 34.0528C124.752 34.04 124.724 34.0212 124.7 33.9973C124.676 33.9735 124.657 33.9452 124.644 33.914C124.631 33.8828 124.624 33.8493 124.624 33.8155V21.8871H122.927C122.893 21.8874 122.859 21.8811 122.828 21.8684C122.797 21.8557 122.768 21.837 122.744 21.8133C122.72 21.7895 122.701 21.7613 122.688 21.7302C122.675 21.699 122.668 21.6656 122.668 21.6318V18.6291C122.668 18.5609 122.696 18.4958 122.745 18.4479C122.793 18.4001 122.859 18.3734 122.927 18.3738H124.624V17.6369C124.624 14.2169 126.351 12.4079 129.616 12.4079C130.957 12.4079 131.854 12.6194 132.554 12.8241C132.607 12.8396 132.653 12.8716 132.685 12.9154C132.718 12.9592 132.736 13.0124 132.736 13.0671V15.9978C132.736 16.0387 132.727 16.079 132.708 16.1155C132.69 16.1521 132.663 16.1838 132.631 16.2081C132.597 16.2311 132.558 16.246 132.517 16.2517C132.477 16.2573 132.435 16.2536 132.396 16.2408C131.734 16.0236 131.142 15.8785 130.405 15.8785C129.168 15.8785 128.618 16.5096 128.618 17.9237V18.4053H134.658C134.764 18.4053 134.862 18.4694 134.898 18.5684L139.028 29.1681L142.798 18.5763C142.816 18.5257 142.849 18.482 142.893 18.4513C142.936 18.4207 142.989 18.4045 143.042 18.4053H146.723C146.809 18.4053 146.887 18.4458 146.936 18.5144C146.959 18.5487 146.974 18.588 146.979 18.6292C146.983 18.6703 146.978 18.712 146.963 18.7506L140.83 34.342C139.557 37.5595 138.114 38.7565 135.505 38.7565ZM119.011 16.468C117.612 16.468 116.474 15.352 116.474 13.9739C116.474 12.5946 117.612 11.4798 119.011 11.4798C120.411 11.4798 121.546 12.5946 121.546 13.9739C121.546 15.352 120.411 16.468 119.011 16.468ZM111.175 21.8871V29.077C111.175 30.211 111.682 30.7173 112.815 30.7173C113.551 30.7173 114.209 30.562 114.89 30.2256C114.929 30.2061 114.973 30.1968 115.017 30.1988C115.061 30.2008 115.104 30.2139 115.142 30.2369C115.179 30.2594 115.21 30.2912 115.232 30.3293C115.253 30.3673 115.264 30.4103 115.264 30.454V33.3014C115.264 33.3462 115.251 33.3901 115.228 33.4285C115.205 33.4668 115.172 33.4983 115.133 33.5196C114.142 34.0742 113.09 34.3319 111.822 34.3319C108.704 34.3319 107.123 32.7467 107.123 29.6226V21.8871H105.422C105.389 21.8873 105.355 21.8808 105.324 21.868C105.293 21.8553 105.265 21.8365 105.241 21.8128C105.217 21.7891 105.198 21.7609 105.185 21.7298C105.172 21.6988 105.166 21.6654 105.165 21.6318V18.6449C105.165 18.5031 105.281 18.3895 105.422 18.3895H107.123V14.4745C107.123 14.335 107.239 14.2214 107.382 14.2214H110.916C111.06 14.2214 111.175 14.335 111.175 14.4745V18.3895H115.065C115.207 18.3895 115.322 18.5031 115.322 18.6449V21.6318C115.322 21.6655 115.316 21.6989 115.302 21.7301C115.289 21.7612 115.27 21.7895 115.246 21.8132C115.222 21.8369 115.194 21.8557 115.163 21.8684C115.132 21.881 115.098 21.8874 115.065 21.8871H111.175ZM96.365 34.4174C91.6335 34.4174 87.9268 30.8478 87.9268 26.2893C87.9268 21.6801 91.6593 18.0711 96.4233 18.0711C101.172 18.0711 104.891 21.6554 104.891 26.2308C104.891 30.8219 101.147 34.4174 96.365 34.4174ZM96.365 21.6284C93.8221 21.6284 91.9789 23.5634 91.9789 26.2308C91.9789 28.8857 93.8894 30.8905 96.4233 30.8905C98.9819 30.8905 100.839 28.9555 100.839 26.2893C100.839 23.6309 98.9158 21.6284 96.365 21.6284ZM79.3787 34.3893C77.3885 34.3893 75.7549 33.6614 74.4083 32.1741V38.4145C74.4081 38.4482 74.4011 38.4816 74.3879 38.5126C74.3747 38.5436 74.3555 38.5717 74.3314 38.5952C74.3073 38.6188 74.2788 38.6373 74.2476 38.6497C74.2163 38.6621 74.183 38.6682 74.1493 38.6676H70.6153C70.5817 38.6682 70.5483 38.6621 70.517 38.6497C70.4858 38.6373 70.4573 38.6188 70.4332 38.5952C70.4091 38.5717 70.3899 38.5436 70.3767 38.5126C70.3635 38.4816 70.3566 38.4482 70.3563 38.4145V18.6449C70.3563 18.5031 70.4718 18.3895 70.6153 18.3895H74.1493C74.2929 18.3895 74.4083 18.5031 74.4083 18.6449V20.4224C75.7549 18.8429 77.3885 18.0711 79.3787 18.0711C83.0787 18.0711 86.8246 20.8724 86.8246 26.2308C86.8246 31.5869 83.0787 34.3893 79.3787 34.3893ZM78.5613 21.6003C76.1429 21.6003 74.3198 23.5893 74.3198 26.2308C74.3198 28.8711 76.1429 30.8612 78.5613 30.8612C81.0056 30.8612 82.7132 28.9566 82.7132 26.2308C82.7132 23.5465 80.9663 21.6003 78.5613 21.6003ZM62.214 21.9018C67.0263 23.0515 68.9873 24.8403 68.9873 28.069C68.9873 31.8895 66.0172 34.36 61.4247 34.36C58.2201 34.3765 55.122 33.2069 52.723 31.075C52.6979 31.0538 52.6773 31.0278 52.6623 30.9986C52.6474 30.9693 52.6384 30.9374 52.6359 30.9046C52.6334 30.8718 52.6374 30.8389 52.6478 30.8077C52.6581 30.7765 52.6745 30.7476 52.6961 30.7229L54.8578 28.1927C54.8799 28.1668 54.907 28.1455 54.9374 28.13C54.9678 28.1146 55.0009 28.1053 55.0349 28.1028C55.1036 28.0979 55.1717 28.1192 55.2255 28.1624C57.3289 29.9545 59.2081 30.7173 61.5121 30.7173C63.5875 30.7173 64.8758 29.8364 64.8758 28.4144C64.8758 27.1319 64.2389 26.4164 60.4593 25.5591C56.0227 24.5028 53.454 23.1359 53.454 19.2738C53.454 15.6726 56.4319 13.1571 60.6937 13.1571C63.592 13.1571 66.0744 14.002 68.2753 15.7413C68.3829 15.8256 68.4042 15.9775 68.3258 16.0866L66.3984 18.7607C66.3572 18.817 66.2955 18.8546 66.2269 18.8654C66.158 18.8757 66.0879 18.8584 66.0318 18.817C64.1818 17.4603 62.4159 16.801 60.6354 16.801C58.7988 16.801 57.5644 17.6684 57.5644 18.9599C57.5644 20.3245 58.2662 20.9759 62.214 21.9018ZM45.6806 23.9976C45.6638 24.2462 45.6481 24.4937 45.6235 24.739C45.6089 24.8852 45.5876 25.0292 45.5708 25.1733C45.5438 25.3949 45.5181 25.6154 45.4855 25.8336C45.462 25.9866 45.434 26.1385 45.4071 26.2904C45.3712 26.4985 45.3364 26.7066 45.2949 26.9125C45.2635 27.0678 45.2277 27.2208 45.1929 27.3749C45.1481 27.5751 45.1032 27.7743 45.0528 27.9722C45.0135 28.1275 44.9698 28.2805 44.9272 28.4346C44.8734 28.6281 44.8195 28.8216 44.7601 29.014C44.655 29.3569 44.5413 29.6971 44.4193 30.0344C44.2426 30.5199 44.0501 30.9994 43.8419 31.4721C43.6967 31.7962 43.5457 32.1176 43.3889 32.4362C43.2992 32.6151 43.2061 32.7906 43.1131 32.9661C43.0391 33.1034 42.9662 33.2395 42.8899 33.3756C42.7908 33.5505 42.6895 33.7241 42.5861 33.8965C42.5076 34.027 42.4302 34.1575 42.3495 34.2869C42.2408 34.4613 42.1275 34.6323 42.0132 34.8032C41.9313 34.9259 41.8517 35.0496 41.7676 35.17C41.6465 35.3455 41.5198 35.5165 41.3931 35.6886C41.3102 35.8011 41.2305 35.9136 41.1453 36.025C41.0063 36.2072 40.8617 36.3839 40.7159 36.5616C40.6385 36.6573 40.5634 36.754 40.4849 36.8485C40.3067 37.06 40.1217 37.2659 39.9367 37.4718C39.8851 37.5269 39.838 37.5854 39.7864 37.6405C39.5454 37.9004 39.2998 38.1546 39.0464 38.4033C39.0016 38.4483 38.9522 38.491 38.9063 38.536C38.7 38.7369 38.49 38.9338 38.2762 39.1266C38.1853 39.2088 38.0912 39.2853 38.0003 39.3651C37.8254 39.517 37.6516 39.6689 37.4722 39.8151C37.3635 39.904 37.2525 39.9884 37.1426 40.075C36.9744 40.2066 36.8074 40.3383 36.6358 40.4665C36.5159 40.5554 36.3936 40.6398 36.2725 40.7264L35.8925 40.993C35.9283 40.9671 35.9676 40.9458 36.0046 40.921C35.962 40.9503 35.9182 40.975 35.8756 41.0043C35.8398 41.029 35.805 41.0549 35.7691 41.0785C35.6402 41.1651 35.5101 41.2484 35.3801 41.3316C35.1587 41.4748 34.9348 41.614 34.7085 41.749L34.63 41.794C34.6468 41.785 34.6647 41.776 34.6804 41.7659L34.4461 41.902C34.2802 41.9987 34.1142 42.0933 33.946 42.1855L33.7252 42.3025C33.5962 42.3711 33.465 42.4386 33.3339 42.505L33.2655 42.5388C33.1646 42.5894 33.0659 42.6411 32.9639 42.6906C32.8271 42.7559 32.6903 42.8211 32.5512 42.8853L32.4391 42.9348C32.3158 42.991 32.1925 43.0461 32.068 43.1001L32.0142 43.1238C31.9054 43.171 31.7944 43.216 31.6845 43.2621C31.493 43.3416 31.3002 43.4178 31.106 43.4905C30.9748 43.54 30.8448 43.5884 30.7136 43.6356L30.5443 43.6975C30.3996 43.7481 30.2528 43.7965 30.1059 43.8438C29.9859 43.8831 29.8659 43.9225 29.7449 43.9596L29.6966 43.9743C29.5666 44.0148 29.4365 44.053 29.3053 44.0901L28.9309 44.1959C28.7705 44.2386 28.6113 44.2825 28.4499 44.323L28.368 44.341L28.1662 44.3905C28.2021 44.3826 28.2357 44.3714 28.2716 44.3635L28.0384 44.4164C28.0799 44.4062 28.1236 44.4006 28.1662 44.3905C28.0675 44.4141 27.9677 44.4321 27.8691 44.4546L27.8545 44.458C27.6942 44.4929 27.5349 44.53 27.3735 44.5615C27.2064 44.5941 27.0382 44.6222 26.8701 44.6504C26.7714 44.6673 26.6739 44.6886 26.5752 44.7044C26.6212 44.6965 26.666 44.6853 26.712 44.6774L26.4687 44.7179C26.5045 44.7122 26.5404 44.71 26.5752 44.7044L26.4104 44.728L26.2781 44.7505C26.0549 44.7831 25.8296 44.8079 25.6042 44.8349C25.4585 44.8518 25.3127 44.8731 25.1647 44.8866L25.1311 44.8911H25.1098C25.0492 44.8968 24.9864 44.899 24.9259 44.9046C24.7869 44.917 24.6478 44.9249 24.5088 44.935C24.0368 44.9688 23.5614 44.9901 23.0815 44.9946C23.0389 44.9946 22.9985 45.0003 22.957 45.0003H22.7855C22.7451 45.0003 22.707 44.9958 22.6666 44.9946C22.1758 44.9893 21.6852 44.9687 21.1956 44.9328C21.0622 44.9226 20.9276 44.9148 20.7942 44.9035C20.7404 44.8979 20.6855 44.8968 20.6305 44.8911H20.6103C20.211 44.8503 19.8128 44.7986 19.4162 44.7359C19.4734 44.7449 19.5317 44.7494 19.5889 44.7573C19.4465 44.7359 19.3008 44.7235 19.1595 44.701L18.9577 44.665C19.0115 44.674 19.0642 44.6886 19.118 44.6976C19.0216 44.6819 18.9274 44.6594 18.831 44.6425L18.7973 44.6369C18.7379 44.6268 18.6807 44.6121 18.6224 44.602C18.2427 44.5341 17.8648 44.4568 17.4889 44.3703L17.5965 44.3916L17.4194 44.3511L17.4889 44.3703C17.3263 44.332 17.1682 44.2836 17.0068 44.2409L17.0325 44.2476C17.0157 44.2443 17 44.2386 16.9832 44.2341L17.0068 44.2409C16.6805 44.1565 16.3542 44.0721 16.0335 43.9743L15.9932 43.963C15.9495 43.9495 15.9069 43.9338 15.8631 43.9191L15.8429 43.9124C15.6624 43.855 15.4853 43.7886 15.3059 43.7267L15.5391 43.8066C15.4158 43.765 15.2935 43.7211 15.1713 43.6773L15.3059 43.7267C15.0312 43.6323 14.7565 43.5378 14.4874 43.4331L14.3517 43.3803C14.3327 43.3724 14.3147 43.3634 14.2957 43.3566C14.1112 43.2821 13.9277 43.2052 13.7452 43.126C13.8651 43.1778 13.9862 43.2261 14.1062 43.2756C13.9279 43.2025 13.7508 43.1249 13.5747 43.0484C13.6319 43.0731 13.688 43.1013 13.7452 43.126C13.5568 43.045 13.3662 42.9663 13.1801 42.8796L13.1397 42.8628C13.115 42.8515 13.0892 42.8414 13.0646 42.829C12.976 42.7885 12.8919 42.739 12.8045 42.6974C12.6251 42.6096 12.4457 42.5241 12.2685 42.433C12.4199 42.5106 12.5746 42.5826 12.7282 42.658C12.5083 42.5504 12.29 42.4394 12.0734 42.325C12.1396 42.3599 12.2024 42.3981 12.2685 42.433C12.1194 42.3554 11.9714 42.2789 11.8245 42.199L11.7707 42.1709C11.7158 42.1416 11.6619 42.109 11.6081 42.0786C11.5375 42.0404 11.4713 41.9965 11.4018 41.956L11.3424 41.9223L11.3727 41.9391C11.1294 41.7996 10.8894 41.6579 10.6529 41.5105C10.7235 41.5544 10.7908 41.6039 10.8625 41.6478C10.747 41.578 10.6349 41.5037 10.5217 41.4329L10.5116 41.4261L10.3389 41.317C10.2515 41.2608 10.1685 41.1989 10.0822 41.1415C9.89715 41.0189 9.70767 40.903 9.52603 40.7747C9.6617 40.8704 9.80634 40.9548 9.94425 41.047C9.70206 40.885 9.45764 40.7264 9.22219 40.5543L9.27152 40.5914C9.2547 40.5801 9.239 40.5666 9.22219 40.5543C9.00243 40.3923 8.78828 40.2235 8.57412 40.0548L8.56403 40.0469L8.56179 40.0458C8.46761 39.9704 8.37118 39.8984 8.277 39.8219L8.27588 39.8208L8.23888 39.7893C7.97876 39.5755 7.72088 39.3573 7.47085 39.1323L7.45067 39.1154L7.43497 39.1008C7.34303 39.0186 7.25782 38.932 7.16812 38.8476C6.99097 38.6834 6.81382 38.5191 6.64227 38.3493L6.62097 38.329C6.55034 38.2593 6.48306 38.1861 6.41355 38.1153C6.46961 38.1726 6.52231 38.2334 6.57949 38.2896C6.52231 38.2323 6.46849 38.1715 6.41131 38.113L6.31937 38.0163C6.16352 37.8543 6.00655 37.6945 5.85518 37.528L5.85294 37.5246C5.76661 37.4301 5.68252 37.3334 5.59843 37.2377L5.5334 37.1624C5.30508 36.9009 5.08228 36.6346 4.86515 36.3636C4.84273 36.3366 4.82143 36.3074 4.80012 36.2793C4.58921 36.014 4.38435 35.7439 4.1857 35.4692C4.16103 35.4344 4.13861 35.3984 4.11394 35.3646C3.98794 35.1866 3.86422 35.007 3.74282 34.8257C3.68115 34.7335 3.61724 34.6413 3.5567 34.5467C3.52867 34.504 3.504 34.4601 3.47709 34.4174C3.36295 34.2384 3.25156 34.0576 3.14297 33.8751C3.12952 33.8504 3.11382 33.8268 3.09925 33.8031C3.05776 33.7345 3.01515 33.667 2.97479 33.5973C2.94452 33.5455 2.91761 33.4915 2.88846 33.4386C2.78343 33.2518 2.68101 33.0636 2.58125 32.8739C2.53303 32.785 2.48258 32.6984 2.43661 32.6084C2.40746 32.5521 2.38167 32.4947 2.35364 32.4385C2.25427 32.2393 2.15857 32.0383 2.06661 31.8355C2.02961 31.7579 1.99037 31.6803 1.95449 31.6015L1.89618 31.4654C1.79191 31.2314 1.69437 30.994 1.59906 30.7555L1.52058 30.5654L1.48806 30.4765C1.37745 30.189 1.27315 29.899 1.17525 29.6069L1.13712 29.4989L1.12591 29.464C0.848693 28.6283 0.621798 27.7766 0.446457 26.9136L0.437488 26.8686C0.419548 26.7797 0.407215 26.6898 0.390397 26.602C0.34101 26.3471 0.296155 26.0913 0.255851 25.8347L0.239033 25.7358C0.221094 25.6098 0.209882 25.4815 0.194185 25.3544C0.162903 25.1239 0.135616 24.8928 0.112336 24.6614C0.110094 24.6389 0.105609 24.6164 0.104488 24.5928C0.101124 24.5624 0.102245 24.5309 0.100003 24.4994C0.0382308 23.8363 0.00643049 23.1707 0.00469971 22.5047C0.00469971 22.2156 0.0159118 21.9276 0.0271239 21.6407C0.0338512 21.4776 0.0405785 21.3145 0.0495482 21.1514C0.0630027 20.9343 0.0809421 20.7194 0.100003 20.5045C0.0876694 20.635 0.0708512 20.7655 0.0618815 20.8971C0.0708512 20.7644 0.0887906 20.6339 0.100003 20.5011C0.114578 20.3391 0.129154 20.1782 0.147094 20.0174C0.17176 19.8036 0.199791 19.5899 0.230063 19.3773C0.252488 19.2175 0.274912 19.0589 0.3007 18.9014V18.9002C0.335457 18.6899 0.3747 18.4806 0.415063 18.2725V18.2703C0.445336 18.1139 0.475609 17.9575 0.509245 17.8023V17.8011C0.55489 17.5942 0.603481 17.3879 0.655003 17.1824C0.692003 17.0294 0.730124 16.8752 0.771609 16.7234V16.7211C0.826548 16.5186 0.884851 16.3195 0.945397 16.1204L0.946518 16.1159C0.991366 15.9651 1.03621 15.8133 1.08443 15.6648L1.08555 15.6614C1.14946 15.4645 1.21785 15.2699 1.28737 15.0753L1.28961 15.0696C1.34231 14.9223 1.39388 14.7749 1.44994 14.6286L1.45106 14.6253C1.52394 14.4329 1.60131 14.2439 1.67867 14.0549L1.68203 14.047C1.74146 13.903 1.80088 13.7579 1.86255 13.615L1.86479 13.6116C1.94877 13.423 2.03511 13.2355 2.12379 13.0491C2.18994 12.9085 2.25497 12.7668 2.32449 12.6284L2.32673 12.6239C2.41643 12.4428 2.51061 12.265 2.60591 12.0873L2.61152 12.076C2.6844 11.9399 2.75615 11.8015 2.8324 11.6665L2.83464 11.662C2.93218 11.4876 3.03534 11.3155 3.13737 11.1434L3.14522 11.131C3.22482 10.9983 3.30331 10.8644 3.38515 10.7328L3.38852 10.7283C3.49391 10.5595 3.60379 10.3941 3.71367 10.2288L3.72264 10.2141C3.80897 10.0859 3.89306 9.9565 3.98164 9.82938L3.985 9.82375C4.09712 9.66175 4.21485 9.50313 4.33146 9.34338L4.34379 9.32763C4.43573 9.20275 4.52543 9.07788 4.61961 8.95525L4.62409 8.94963C4.74294 8.79438 4.8674 8.6425 4.99185 8.4895L5.00531 8.47263C5.10285 8.35225 5.19928 8.23188 5.29906 8.11375C5.30021 8.11162 5.30173 8.10972 5.30355 8.10813C5.42912 7.95963 5.56031 7.81338 5.69037 7.66825L5.70718 7.65025C5.81034 7.53438 5.91124 7.4185 6.01664 7.30488L6.02224 7.30038C6.15455 7.1575 6.29246 7.01913 6.42812 6.88075L6.44718 6.86163C6.55594 6.75138 6.66246 6.64 6.77346 6.532C6.77527 6.53041 6.77679 6.52851 6.77794 6.52638L6.81831 6.48588L6.78018 6.52525C6.90015 6.40825 7.02461 6.29575 7.14682 6.181C7.04591 6.2755 6.94164 6.36663 6.84185 6.46225C6.95958 6.34863 7.08291 6.2395 7.20288 6.12813L7.22418 6.109C7.33855 6.00325 7.45067 5.89638 7.56615 5.794L7.57176 5.7895C7.69621 5.67813 7.82628 5.57238 7.95409 5.46325C7.84646 5.55438 7.73658 5.641 7.63119 5.73438C7.75676 5.62413 7.88682 5.5195 8.01352 5.41263C8.02151 5.4056 8.02974 5.39885 8.03818 5.39238C8.15591 5.29338 8.27252 5.19213 8.39249 5.09538L8.39809 5.09088L8.4564 5.0425L8.39921 5.08975C8.52928 4.98513 8.6627 4.885 8.795 4.78375C8.68288 4.87038 8.5674 4.95363 8.4564 5.0425C8.58758 4.93675 8.72437 4.83663 8.85891 4.73425L8.8847 4.714C9.00803 4.62063 9.128 4.52613 9.25246 4.435L9.25694 4.43163L9.31412 4.38888L9.26031 4.42938C9.39597 4.33038 9.53388 4.237 9.67067 4.14138C9.55294 4.22463 9.43073 4.30338 9.31412 4.38888C9.45203 4.28763 9.59555 4.19313 9.73682 4.09638L9.76597 4.07613C9.89155 3.98838 10.016 3.8995 10.1438 3.81513L10.1483 3.81175L10.2032 3.77463L10.1539 3.80838C10.2941 3.71613 10.4387 3.6295 10.58 3.5395C10.4555 3.61825 10.3266 3.69363 10.2032 3.77463C10.349 3.679 10.4981 3.59013 10.6461 3.49788L10.6786 3.47875C10.8076 3.39775 10.9354 3.3145 11.0666 3.23688L11.0711 3.23463C11.0882 3.2231 11.1058 3.21221 11.1238 3.202L11.0789 3.23013C11.2247 3.1435 11.3738 3.0625 11.5218 2.97925C11.3895 3.0535 11.2538 3.12438 11.1238 3.202C11.2751 3.112 11.4321 3.02875 11.5857 2.94325L11.6216 2.923C11.7539 2.84988 11.8839 2.77338 12.0174 2.70138C12.019 2.70107 12.0206 2.70029 12.0219 2.69913L12.0723 2.67213L12.0319 2.69463C12.1844 2.61363 12.3414 2.53825 12.495 2.46063C12.3549 2.5315 12.2113 2.59788 12.0723 2.67213C12.2315 2.58775 12.3941 2.51125 12.5544 2.43025C12.5678 2.42456 12.5809 2.41817 12.5937 2.41113C12.7282 2.34475 12.8605 2.275 12.9973 2.21088L13.0007 2.20863L13.0489 2.185L13.0141 2.203C13.1745 2.12763 13.3382 2.05788 13.5007 1.98588C13.3505 2.05338 13.198 2.11525 13.0489 2.185C13.2148 2.10738 13.3841 2.03763 13.5523 1.96338L13.5949 1.94425C13.7306 1.88463 13.8651 1.82163 14.003 1.76538L14.0064 1.76313C14.0215 1.75723 14.0365 1.75085 14.0512 1.744L14.0221 1.7575C14.1925 1.68663 14.3663 1.62363 14.539 1.55725C14.3764 1.61913 14.2127 1.67875 14.0512 1.744C14.2239 1.67313 14.4011 1.61013 14.576 1.54263L14.6242 1.52463C14.761 1.47175 14.8955 1.41663 15.0345 1.366H15.0368C15.0507 1.36008 15.065 1.35482 15.0794 1.35025L15.0547 1.35925C15.2397 1.29288 15.4292 1.23438 15.6165 1.1725C15.4371 1.23213 15.2565 1.28725 15.0794 1.35025C15.2599 1.28613 15.4438 1.22988 15.6254 1.16913L15.6815 1.15113C15.8183 1.10613 15.9517 1.05775 16.0885 1.01613H16.0907L16.13 1.00375L16.1109 1.0105C16.306 0.950876 16.5045 0.899126 16.7007 0.845126L16.6704 0.854126L16.7489 0.831626L16.8173 0.812501C16.9339 0.781001 17.0482 0.746126 17.166 0.715751H17.1671L17.2019 0.706751L17.1906 0.710126C17.3925 0.659501 17.5976 0.616751 17.8017 0.571751L17.7299 0.587501C17.8331 0.563876 17.9351 0.539126 18.0394 0.517751L18.1381 0.495251C18.1807 0.486251 18.2222 0.475001 18.2636 0.467126L18.2648 0.466001L18.295 0.461501L18.2905 0.462626C18.5013 0.419876 18.7155 0.386126 18.9296 0.350126L18.8153 0.369251C19.0059 0.336626 19.1942 0.298376 19.3849 0.270251L19.386 0.269126L19.405 0.266876H19.4095C19.5799 0.241001 19.7537 0.224126 19.9253 0.201626C19.8098 0.216251 19.6921 0.229751 19.5766 0.245501C19.747 0.221876 19.9197 0.201626 20.0912 0.181376L19.9253 0.201626C20.1237 0.176876 20.3211 0.147626 20.5218 0.127376H20.5229L20.5464 0.125126H20.5475C20.7169 0.108251 20.8884 0.099251 21.0588 0.086876L20.8918 0.099251C21.033 0.088001 21.1732 0.076751 21.3145 0.067751L21.0588 0.086876C21.264 0.071126 21.4681 0.050876 21.6744 0.040751H21.6755L21.7013 0.039626C21.8717 0.030626 22.0444 0.030626 22.2148 0.026126L22.1195 0.028376C22.3695 0.020501 22.6184 0.010376 22.8707 0.010376C35.5 0.010376 45.7367 10.0803 45.7367 22.5047C45.7367 22.8816 45.7255 23.2562 45.7075 23.6286C45.7008 23.7524 45.6885 23.875 45.6806 23.9976ZM9.60452 29.7003C9.77831 30.454 10.5441 30.9265 11.311 30.7533C19.2694 28.9645 26.028 29.6935 31.3964 32.9222C32.0691 33.325 32.947 33.1191 33.3574 32.4543C33.4547 32.2973 33.5198 32.1223 33.5487 31.9398C33.5776 31.7572 33.5697 31.5706 33.5257 31.3911C33.4816 31.2116 33.4021 31.0428 33.2919 30.8946C33.1818 30.7464 33.0431 30.6218 32.8842 30.5283C26.8566 26.9035 19.386 26.0609 10.6753 28.0206C10.4942 28.0588 10.3226 28.1328 10.1704 28.2383C10.0182 28.3438 9.88844 28.4787 9.78875 28.6351C9.68907 28.7914 9.62143 28.9662 9.5898 29.1491C9.55817 29.3319 9.56317 29.5193 9.60452 29.7003ZM8.69185 23.1179C8.97888 24.0437 9.97452 24.5658 10.9186 24.2856C18.1885 22.1155 27.5585 23.191 33.7027 26.908C34.5403 27.4131 35.6391 27.1555 36.1548 26.332C36.277 26.1358 36.3589 25.917 36.3956 25.6886C36.4323 25.4601 36.4231 25.2266 36.3686 25.0018C36.314 24.777 36.2153 24.5653 36.078 24.3794C35.9408 24.1934 35.7679 24.0368 35.5695 23.9189C28.5104 19.654 18.1874 18.4514 9.88146 20.9309C9.65949 20.9949 9.4524 21.1025 9.27217 21.2474C9.09194 21.3924 8.94217 21.5717 8.83152 21.7751C8.72088 21.9785 8.65156 22.202 8.62758 22.4325C8.60361 22.6629 8.62545 22.8959 8.69185 23.1179ZM38.5789 16.333C30.0935 11.3774 16.667 10.9116 8.58982 13.3248C8.32342 13.4013 8.07485 13.5302 7.85857 13.704C7.64228 13.8778 7.46261 14.0931 7.33 14.3372C7.19739 14.5813 7.11449 14.8495 7.08612 15.1261C7.05775 15.4027 7.08448 15.6821 7.16476 15.9483C7.50673 17.0609 8.70082 17.6875 9.83212 17.35C16.8677 15.2496 29.025 15.6468 36.397 19.9521C36.8845 20.2376 37.464 20.3204 38.0115 20.1827C38.559 20.045 39.0311 19.6977 39.3267 19.2153C39.4699 18.9777 39.5641 18.7138 39.604 18.4391C39.6438 18.1644 39.6285 17.8845 39.5588 17.6158C39.489 17.3472 39.3664 17.0953 39.1981 16.875C39.0299 16.6546 38.8193 16.4704 38.5789 16.333ZM22.8102 0.010376H22.8707C22.6509 0.010376 22.4334 0.020501 22.2148 0.026126C22.4132 0.020501 22.6106 0.010376 22.8102 0.010376ZM120.76 18.3895C120.904 18.3895 121.019 18.5031 121.019 18.6449V33.8155C121.019 33.8839 120.991 33.9493 120.943 33.9974C120.894 34.0455 120.829 34.0723 120.76 34.072H117.225C117.157 34.0723 117.091 34.0455 117.043 33.9974C116.994 33.9493 116.967 33.8839 116.966 33.8155V18.6449C116.966 18.5031 117.083 18.3895 117.225 18.3895H120.76ZM145.754 29.257C147.016 29.257 147.997 30.2673 147.997 31.4935C147.995 32.0918 147.757 32.6651 147.335 33.0872C146.912 33.5094 146.34 33.7458 145.743 33.7446C145.449 33.7467 145.157 33.6903 144.885 33.5787C144.613 33.4671 144.365 33.3024 144.157 33.0943C143.948 32.8862 143.783 32.6386 143.67 32.366C143.557 32.0934 143.499 31.801 143.5 31.5059C143.5 30.2785 144.494 29.257 145.754 29.257ZM145.743 33.5196C146.009 33.5222 146.273 33.4715 146.519 33.3706C146.765 33.2697 146.989 33.1205 147.177 32.9319C147.365 32.7432 147.513 32.5189 147.614 32.2719C147.715 32.0249 147.765 31.7603 147.763 31.4935C147.766 31.2281 147.716 30.9648 147.616 30.7191C147.516 30.4733 147.368 30.25 147.181 30.0624C146.994 29.8748 146.771 29.7266 146.526 29.6266C146.281 29.5265 146.019 29.4766 145.754 29.4798C144.606 29.4798 143.736 30.3899 143.736 31.5059C143.736 32.6219 144.6 33.5196 145.743 33.5196ZM146.798 31.0109C146.798 31.3945 146.575 31.6307 146.251 31.7241L146.886 32.6095H146.351L145.78 31.7961H145.289V32.6095H144.841V30.2616H145.891C146.438 30.2616 146.798 30.5406 146.798 31.0109ZM145.289 30.6633V31.4069H145.873C146.165 31.4069 146.339 31.2651 146.339 31.0345C146.339 30.7937 146.165 30.6633 145.873 30.6633H145.289Z" fill="white"/>
</g>
<defs>
<clipPath id="clip0_1296_2103">
<rect width="148" height="45" fill="white"/>
</clipPath>
</defs>
</svg>
